<svg xmlns="http://www.w3.org/2000/svg" width="500" height="500" viewBox="0 0 500 500" version="1.1"><path d="M 206.761 166.250 L 206.500 208.500 165.250 208.761 L 124 209.022 124 250.511 L 124 292 165.489 292 L 206.978 292 207.239 334.250 L 207.500 376.500 250 376.500 L 292.500 376.500 292.761 334.261 L 293.022 292.022 334.761 291.761 L 376.500 291.500 376.761 250.261 L 377.022 209.022 335.261 208.761 L 293.500 208.500 293.239 166.250 L 292.978 124 250 124 L 207.022 124 206.761 166.250" stroke="none" fill="#fbfbfb" fill-rule="evenodd"/><path d="M 194.514 58.066 C 150.133 62.965, 108.628 88.702, 82.540 127.500 C 76.567 136.383, 67.984 154.139, 64.654 164.500 C 57.545 186.620, 56.694 197.551, 57.272 259.318 C 57.698 304.872, 57.889 309.212, 59.868 318.159 C 66.831 349.643, 80.411 374.513, 102.949 397.051 C 125.469 419.571, 150.155 433.060, 181.841 440.161 C 190.910 442.193, 194.676 442.350, 243.500 442.737 C 299.345 443.180, 308.186 442.713, 325.397 438.417 C 357.945 430.291, 389.548 409.553, 410.607 382.500 C 424.973 364.045, 434.750 342.729, 440.190 318 C 442.455 307.705, 442.500 306.375, 442.500 250 C 442.500 194.061, 442.439 192.225, 440.252 182.352 C 433.615 152.392, 420.411 127.146, 400.340 106.037 C 378.089 82.635, 350.275 67.004, 318.159 59.853 C 309.039 57.822, 305.544 57.688, 255.500 57.443 C 226.350 57.301, 198.906 57.581, 194.514 58.066 M 206.761 166.250 L 206.500 208.500 165.250 208.761 L 124 209.022 124 250.511 L 124 292 165.489 292 L 206.978 292 207.239 334.250 L 207.500 376.500 250 376.500 L 292.500 376.500 292.761 334.261 L 293.022 292.022 334.761 291.761 L 376.500 291.500 376.761 250.261 L 377.022 209.022 335.261 208.761 L 293.500 208.500 293.239 166.250 L 292.978 124 250 124 L 207.022 124 206.761 166.250" stroke="none" fill="#20a448" fill-rule="evenodd"/></svg>