<svg xmlns="http://www.w3.org/2000/svg" viewBox="0 0 500 500"><g id="freepik--background-simple--inject-3"><path d="M69.79,208C49.19,322.4,187,249.31,231.47,258.35c31.91,6.48,63.82,66.46,107.21,68.1,45.59,1.73,80.37-42.23,85.92-81.8C433,184.85,349.42,66,276.06,77.57c-55.64,8.77-47.17,87.54-99.19,104C144.16,191.83,81,145.66,69.79,208Z" style="fill:#1DC071"></path><path d="M69.79,208C49.19,322.4,187,249.31,231.47,258.35c31.91,6.48,63.82,66.46,107.21,68.1,45.59,1.73,80.37-42.23,85.92-81.8C433,184.85,349.42,66,276.06,77.57c-55.64,8.77-47.17,87.54-99.19,104C144.16,191.83,81,145.66,69.79,208Z" style="fill:#fff;opacity:0.9"></path></g><g id="freepik--Shadow--inject-3"><ellipse id="freepik--path--inject-3" cx="250" cy="416.24" rx="193.89" ry="11.32" style="fill:#f5f5f5"></ellipse></g><g id="freepik--Folder--inject-3"><rect x="64.73" y="272.09" width="1.02" height="15.5" transform="translate(-32.07 9.47) rotate(-6.67)" style="fill:#1DC071"></rect><rect x="66.76" y="293.23" width="1.02" height="7.82" transform="translate(-34.07 9.83) rotate(-6.67)" style="fill:#1DC071"></rect><path d="M134.59,240.69l-1.2-3.37a10.86,10.86,0,0,0-11.5-7.14L74.1,235.77a10.87,10.87,0,0,0-9.53,12.06l13.6,116.3a7.45,7.45,0,0,0,8.27,6.54l171-20A7.45,7.45,0,0,0,264,342.4L252.2,241.86a7.45,7.45,0,0,0-8.26-6.54l-99.3,11.62A9.51,9.51,0,0,1,134.59,240.69Z" style="fill:#1DC071"></path><rect x="92.22" y="194.76" width="55.09" height="75.9" transform="translate(-43.17 27.9) rotate(-11.27)" style="fill:#1DC071"></rect><rect x="92.22" y="194.76" width="55.09" height="75.9" transform="translate(-43.17 27.9) rotate(-11.27)" style="fill:#fff;opacity:0.7000000000000001"></rect><g style="opacity:0.4"><path d="M132.15,208l-33.28,6.64a3,3,0,0,1-3.51-2.34h0a3,3,0,0,1,2.34-3.51L131,202.18a3,3,0,0,1,3.51,2.34h0A3,3,0,0,1,132.15,208Z" style="fill:#1DC071"></path><path d="M134.6,220.33,101.32,227a3,3,0,0,1-3.5-2.34h0a3,3,0,0,1,2.34-3.5l33.28-6.63a3,3,0,0,1,3.5,2.34h0A3,3,0,0,1,134.6,220.33Z" style="fill:#1DC071"></path><path d="M137.05,232.64l-33.28,6.63a3,3,0,0,1-3.5-2.34h0a3,3,0,0,1,2.34-3.5l33.28-6.64a3,3,0,0,1,3.5,2.34h0A3,3,0,0,1,137.05,232.64Z" style="fill:#1DC071"></path><path d="M139.51,245l-33.28,6.63a3,3,0,0,1-3.51-2.34h0a3,3,0,0,1,2.34-3.51l33.28-6.63a3,3,0,0,1,3.51,2.34h0A3,3,0,0,1,139.51,245Z" style="fill:#1DC071"></path><path d="M132.86,259.07l-24.18,4.82a3,3,0,0,1-3.5-2.34h0a3,3,0,0,1,2.34-3.51l24.18-4.82a3,3,0,0,1,3.5,2.34h0A3,3,0,0,1,132.86,259.07Z" style="fill:#1DC071"></path></g><rect x="166.66" y="179.14" width="55.09" height="75.9" transform="translate(-27.64 28.34) rotate(-7.79)" style="fill:#1DC071"></rect><rect x="166.66" y="179.14" width="55.09" height="75.9" transform="translate(-27.64 28.34) rotate(-7.79)" style="fill:#fff;opacity:0.7000000000000001"></rect><g style="opacity:0.4"><path d="M208.06,193.2l-33.62,4.6a3,3,0,0,1-3.36-2.55h0a3,3,0,0,1,2.55-3.36l33.62-4.6a3,3,0,0,1,3.36,2.55h0A3,3,0,0,1,208.06,193.2Z" style="fill:#1DC071"></path><path d="M209.76,205.63l-33.62,4.6a3,3,0,0,1-3.36-2.55h0a3,3,0,0,1,2.55-3.35l33.62-4.6a3,3,0,0,1,3.36,2.54h0A3,3,0,0,1,209.76,205.63Z" style="fill:#1DC071"></path><path d="M187.1,221.4l-9.26,1.27a3,3,0,0,1-3.36-2.55h0a3,3,0,0,1,2.55-3.36l9.27-1.27a3,3,0,0,1,3.35,2.55h0A3,3,0,0,1,187.1,221.4Z" style="fill:#1DC071"></path><path d="M205.07,218.94l-9.27,1.27a3,3,0,0,1-3.35-2.55h0A3,3,0,0,1,195,214.3l9.26-1.26a3,3,0,0,1,3.36,2.54h0A3,3,0,0,1,205.07,218.94Z" style="fill:#1DC071"></path><path d="M213.16,230.5l-33.62,4.6a3,3,0,0,1-3.36-2.55h0a3,3,0,0,1,2.55-3.35l33.62-4.61a3,3,0,0,1,3.36,2.55h0A3,3,0,0,1,213.16,230.5Z" style="fill:#1DC071"></path><path d="M205.68,244.19l-24.44,3.34a3,3,0,0,1-3.35-2.54h0a3,3,0,0,1,2.54-3.36l24.44-3.34a3,3,0,0,1,3.35,2.54h0A3,3,0,0,1,205.68,244.19Z" style="fill:#1DC071"></path></g><rect x="113.15" y="188.99" width="55.09" height="75.9" transform="translate(-19.17 13.07) rotate(-4.98)" style="fill:#1DC071"></rect><rect x="113.15" y="188.99" width="55.09" height="75.9" transform="translate(-19.17 13.07) rotate(-4.98)" style="fill:#fff;opacity:0.8"></rect><g style="opacity:0.4"><path d="M155.71,203.76,121.9,206.7a3,3,0,0,1-3.23-2.71h0a3,3,0,0,1,2.71-3.22l33.81-3a3,3,0,0,1,3.23,2.71h0A3,3,0,0,1,155.71,203.76Z" style="fill:#1DC071"></path><path d="M156.8,216.26l-33.81,3a3,3,0,0,1-3.23-2.71h0a3,3,0,0,1,2.71-3.23l33.81-3a3,3,0,0,1,3.23,2.71h0A3,3,0,0,1,156.8,216.26Z" style="fill:#1DC071"></path><path d="M157.89,228.76l-33.81,3a3,3,0,0,1-3.23-2.71h0a3,3,0,0,1,2.71-3.23l33.81-3a3,3,0,0,1,3.23,2.71h0A3,3,0,0,1,157.89,228.76Z" style="fill:#1DC071"></path><path d="M159,241.26l-33.81,3a3,3,0,0,1-3.23-2.71h0a3,3,0,0,1,2.71-3.23l33.81-2.94a3,3,0,0,1,3.23,2.71h0A3,3,0,0,1,159,241.26Z" style="fill:#1DC071"></path><path d="M150.83,254.57l-24.57,2.14A3,3,0,0,1,123,254h0a3,3,0,0,1,2.71-3.23l24.57-2.14a3,3,0,0,1,3.23,2.71h0A3,3,0,0,1,150.83,254.57Z" style="fill:#1DC071"></path></g><rect x="178.5" y="184.34" width="55.09" height="75.9" transform="translate(-10.48 10.19) rotate(-2.76)" style="fill:#1DC071"></rect><rect x="178.5" y="184.34" width="55.09" height="75.9" transform="translate(-10.48 10.19) rotate(-2.76)" style="fill:#fff;opacity:0.8"></rect><g style="opacity:0.4"><path d="M221.94,199.7l-33.89,1.64a3,3,0,0,1-3.12-2.83h0a3,3,0,0,1,2.83-3.12l33.9-1.64a3,3,0,0,1,3.12,2.83h0A3,3,0,0,1,221.94,199.7Z" style="fill:#1DC071"></path><path d="M222.55,212.24l-33.9,1.63a3,3,0,0,1-3.12-2.83h0a3,3,0,0,1,2.84-3.12l33.89-1.64a3,3,0,0,1,3.12,2.84h0A3,3,0,0,1,222.55,212.24Z" style="fill:#1DC071"></path><path d="M198.6,226l-9.34.45a3,3,0,0,1-3.12-2.83h0a3,3,0,0,1,2.83-3.12l9.34-.46a3,3,0,0,1,3.12,2.84h0A3,3,0,0,1,198.6,226Z" style="fill:#1DC071"></path><path d="M216.71,225.08l-9.34.45a3,3,0,0,1-3.12-2.83h0a3,3,0,0,1,2.83-3.12l9.34-.45a3,3,0,0,1,3.12,2.83h0A3,3,0,0,1,216.71,225.08Z" style="fill:#1DC071"></path><path d="M223.76,237.31l-33.9,1.63a3,3,0,0,1-3.12-2.83h0a3,3,0,0,1,2.84-3.12l33.89-1.64a3,3,0,0,1,3.12,2.84h0A3,3,0,0,1,223.76,237.31Z" style="fill:#1DC071"></path><path d="M215.1,250.29l-24.63,1.19a3,3,0,0,1-3.12-2.83h0a3,3,0,0,1,2.83-3.12l24.63-1.19a3,3,0,0,1,3.12,2.83h0A3,3,0,0,1,215.1,250.29Z" style="fill:#1DC071"></path></g><path d="M149.85,242.84l-.88-3.29a9.62,9.62,0,0,0-10.71-7l-47.79,5.59A12,12,0,0,0,79.93,250l2.71,113.85a6.57,6.57,0,0,0,7.57,6.38l171-20a8.22,8.22,0,0,0,7.23-8.11l-2.34-98.42a6.58,6.58,0,0,0-7.58-6.38l-99.29,11.61A8.41,8.41,0,0,1,149.85,242.84Z" style="fill:#1DC071"></path><path d="M149.85,242.84l-.88-3.29a9.62,9.62,0,0,0-10.71-7l-47.79,5.59A12,12,0,0,0,79.93,250l2.71,113.85a6.57,6.57,0,0,0,7.57,6.38l171-20a8.22,8.22,0,0,0,7.23-8.11l-2.34-98.42a6.58,6.58,0,0,0-7.58-6.38l-99.29,11.61A8.41,8.41,0,0,1,149.85,242.84Z" style="opacity:0.30000000000000004"></path></g><g id="freepik--Character--inject-3"><path d="M317,188.11c-.74,3.71-1.53,7.37-2.42,11s-1.76,7.3-2.73,10.93l-1.48,5.43-.19.7c-.09.3-.19.6-.31.91a9.18,9.18,0,0,1-1,1.93,7,7,0,0,1-1.87,1.9,6,6,0,0,1-2.73,1A7.83,7.83,0,0,1,300,221a15.65,15.65,0,0,1-2.78-1.93,24.22,24.22,0,0,1-4.07-4.59L296,212a34.87,34.87,0,0,0,4.3,2.86,10.42,10.42,0,0,0,2.06.89c.61.2,1.15.17,1.15.07s-.1,0-.15,0,0,0,0-.17.12-.35.19-.61l.23-1.11,1.16-5.46,2.35-10.92c.76-3.64,1.58-7.29,2.37-10.89Z" style="fill:#ffc3bd"></path><path d="M313.68,176.68c-8.53,6.53-8.18,18.84-8.18,18.84l15.25,3.65s4.69-12.38,2.79-16.91C321.56,177.54,318.49,173,313.68,176.68Z" style="fill:#263238"></path><path d="M296.76,212.15l-5.61-5.61-3,8.78s4.74,2.55,9.27.14Z" style="fill:#ffc3bd"></path><polygon points="283.38 205.67 282.35 212.61 288.12 215.32 291.15 206.54 283.38 205.67" style="fill:#ffc3bd"></polygon><polygon points="363.12 408.86 354.54 409.7 345.61 389.27 354.19 388.43 363.12 408.86" style="fill:#ffc3bd"></polygon><polygon points="418.4 378.66 411.95 384.71 398.04 369.42 404.49 363.37 418.4 378.66" style="fill:#ffc3bd"></polygon><path d="M409,381.81l4.84-8.72a.71.71,0,0,1,.88-.33l7.45,2.84a1.42,1.42,0,0,1,.69,2c-1.74,3-2.73,4.38-4.86,8.22-1.31,2.36-3.86,7.77-5.67,11s-5.13,1.65-4.67.13c2.07-6.82,1.68-10.61,1.1-13.61A2.3,2.3,0,0,1,409,381.81Z" style="fill:#263238"></path><path d="M353.4,407.05h10.54a.86.86,0,0,1,.83.64l2.29,8.33a1.31,1.31,0,0,1-1.28,1.67c-3.72,0-5.48,0-10.11,0H341.51c-3.86,0-4.66-3.89-3.07-4.25,7.15-1.58,11.26-3.76,13.47-5.84A2.18,2.18,0,0,1,353.4,407.05Z" style="fill:#263238"></path><polygon points="345.62 389.28 350.22 399.81 359.17 399.81 354.2 388.44 345.62 389.28" style="opacity:0.2"></polygon><polygon points="404.49 363.38 398.04 369.43 405.22 377.31 411.67 371.25 404.49 363.38" style="opacity:0.2"></polygon><path d="M316.26,175.42s-3.86,1.69,9.08,52.89l35.94-3.11c-1.86-14.57-2.66-23.59,1.73-54.22a105.81,105.81,0,0,0-15.43-.69,115.11,115.11,0,0,0-16.32,1.41A152.2,152.2,0,0,0,316.26,175.42Z" style="fill:#263238"></path><path d="M347.58,170s2,0,4.44,0c1.45,2.23-3.25,12-11,18.39a19.7,19.7,0,0,0-6.25-9.06Z" style="fill:#fff"></path><path d="M331.26,171.57s-.91.13-3.08.63c-1.45,2.23-3.9,11.76.37,16.62a19.18,19.18,0,0,1,6.19-9.41Z" style="fill:#fff"></path><path d="M344.37,152.05c-.57,5.34-.77,15,3.21,18.24,0,0-4.25,4.34-12.84,9.12-6.25-4.32-3.48-7.71-3.48-7.71,5.73-1.9,5.2-6.23,3.83-10.23Z" style="fill:#ffc3bd"></path><path d="M334.59,179.44s5.27-5.74,8-4.64.62,3.07.38,4.92,1.06,6.77-2.59,5.49S334.59,179.44,334.59,179.44Z" style="fill:#1DC071"></path><path d="M334.38,179.32s-2.49-4.4-5.18-3.81-1.09,2.13-.85,3.79c.31,2.12-1.93,6.2,1.31,5S334.38,179.32,334.38,179.32Z" style="fill:#1DC071"></path><g style="opacity:0.2"><path d="M333,178.37a5.71,5.71,0,0,0,.5,2.58,12,12,0,0,0,.87-1.62,12.11,12.11,0,0,0-1.27-1.77A2.25,2.25,0,0,0,333,178.37Z"></path><path d="M336.51,177.58c-1.13,1-1.91,1.86-1.91,1.86a13.64,13.64,0,0,0,1,1.73,3.44,3.44,0,0,0,1-2.27A2.37,2.37,0,0,0,336.51,177.58Z"></path></g><path d="M334.53,181.24c-.75,0-1.21-.81-1.26-2.74s1.43-.86,1.43-.86,2-1,1.64,1.31C336.08,180.78,335.3,181.24,334.53,181.24Z" style="fill:#1DC071"></path><path d="M340.59,155.9l-5.49,5.57a17.64,17.64,0,0,1,.75,2.85c2.21-.51,5.41-2.81,5.44-5.17A9.28,9.28,0,0,0,340.59,155.9Z" style="opacity:0.2"></path><path d="M335.88,134s-6,8.31-7,12c-4.08,2.38-4.9-9.33-2.74-16.55C332.88,133.68,335.88,134,335.88,134Z" style="fill:#263238"></path><path d="M349.07,143.71c-2.23,8.53-3,12.19-8.22,15.76-7.87,5.38-17.86.78-18.23-8.25-.33-8.12,3.37-20.71,12.5-22.48A12,12,0,0,1,349.07,143.71Z" style="fill:#ffc3bd"></path><path d="M353.71,140.3s-4.29,6.95-4.87,10c-3.11,2.11-4.42-7.15-3.11-13C347.16,132.09,353.71,140.3,353.71,140.3Z" style="fill:#263238"></path><path d="M352,135.47c-1.24.94-2.55-2.53-1.32-5.19-2.37.15-5.22-1.26-4.61-3.55-4.67,1.57-6.4-3.18-5.86-6.47.65-4,4.13-4.85,6.18-3.8,0-1.79,4.52-5.52,6.24-2.6,3.19-1.13,8.33-.78,8.22,3.14,2.11.06,8.34,2.45,6,8,2.75.16,4.24,3.65,2.71,6.29a4.25,4.25,0,0,1,.87,6.9c1.27,2.64-2.58,6.57-4.63,6.1-1.56,2.39-3.95,4.19-5.51,2.15-3,2.21-6.45-.6-5.68-2.76C351.21,143.16,347.74,137.49,352,135.47Z" style="fill:#263238"></path><path d="M357.08,127.07c2.24,3.74,2.05,8-.41,9.45s-6.29-.35-8.53-4.09-2.06-8,.41-9.45S354.84,123.34,357.08,127.07Z" style="fill:#1DC071"></path><path d="M336.28,133c-.13,1.07-3.08.79-3.93-1.1-1.22,1.28-4.09,1.94-5.07.55-1.66,3.12-5,2.3-5.86.81s-1.43-4.26.3-4.81c-1-.86-.7-4.91,1.92-4.4,1.1-2.16,4.11-4.61,6.31-2.7,1.2-1,6-3.08,7.94.73a3.41,3.41,0,0,1,5.11,1.6c3.11-.81,4.46,1.55,4.45,2.83,2.21.6,2.36,4.42,1,5.24.53,1.93.25,4-1.78,3.82-.39,2.6-3.87,3-4.69,1.59C339.72,138.61,335.11,136.09,336.28,133Z" style="fill:#263238"></path><path d="M331,125.62c2.53-3.5,11.76-5,19.75.29,7.2,4.73,6.73,15.72,1,15.13s-11.39-7.3-11.39-7.3Z" style="fill:#263238"></path><path d="M349.77,151.41a6.46,6.46,0,0,1-3.78,3.14c-2.17.65-3.29-1.27-2.73-3.34.51-1.86,2.24-4.44,4.43-4.18A2.89,2.89,0,0,1,349.77,151.41Z" style="fill:#ffc3bd"></path><path d="M325.34,228.31s-12.16,53.8-4,91.73c5.44,25.4,25,76.71,25,76.71l15.34-.39s-14.85-53.85-17.92-75c-5.25-36.22,7.9-95.29,7.9-95.29Z" style="fill:#1DC071"></path><path d="M339.36,239.18,347,251.27a370.91,370.91,0,0,0-4.39,43.3C331.86,275.27,337,249.39,339.36,239.18Z" style="opacity:0.2"></path><polygon points="344.18 397.55 363.12 397.06 362.03 391.25 342.7 392.16 344.18 397.55" style="fill:#263238"></polygon><path d="M333.2,227.74s7.13,57.05,22.6,88.2c12.49,25.16,45.82,61,45.82,61l8.52-8.78s-22.51-38.92-31.79-55.63c-22.77-41-4.16-72.25-17.07-87.3Z" style="fill:#1DC071"></path><polygon points="400.76 378.09 411.76 367.37 408.11 362.4 396.44 374.04 400.76 378.09" style="fill:#263238"></polygon><path d="M361.64,223.05l1.9,3.08c.15.23-.13.51-.54.55l-37.7,3.26c-.32,0-.6-.11-.64-.31l-.6-3.19c-.05-.22.22-.43.57-.46l36.4-3.15A.64.64,0,0,1,361.64,223.05Z" style="fill:#1DC071"></path><path d="M361.64,223.05l1.9,3.08c.15.23-.13.51-.54.55l-37.7,3.26c-.32,0-.6-.11-.64-.31l-.6-3.19c-.05-.22.22-.43.57-.46l36.4-3.15A.64.64,0,0,1,361.64,223.05Z" style="fill:#fff;opacity:0.5"></path><path d="M357.1,227.54l1-.08c.19,0,.33-.13.31-.25l-.82-4.14c0-.13-.2-.21-.4-.19l-1,.08c-.2,0-.34.13-.31.25l.82,4.14C356.73,227.47,356.91,227.56,357.1,227.54Z" style="fill:#1DC071"></path><path d="M328.07,230.05l1-.08c.19,0,.33-.13.31-.25l-.82-4.14a.36.36,0,0,0-.4-.19l-1,.08c-.2,0-.34.13-.31.25l.82,4.14C327.7,230,327.88,230.07,328.07,230.05Z" style="fill:#1DC071"></path><path d="M342.59,228.8l1-.09c.2,0,.34-.13.31-.25l-.82-4.14c0-.12-.2-.21-.39-.19l-1,.09c-.19,0-.33.13-.31.25l.82,4.14C342.22,228.73,342.39,228.81,342.59,228.8Z" style="fill:#1DC071"></path><path d="M334.63,143.42c-.14.7-.62,1.2-1.08,1.11s-.72-.74-.59-1.44.63-1.2,1.09-1.11S334.77,142.71,334.63,143.42Z" style="fill:#263238"></path><ellipse cx="325.85" cy="141.69" rx="1.3" ry="0.85" transform="translate(123.96 434.09) rotate(-78.88)" style="fill:#263238"></ellipse><path d="M326.3,140.5l-1.6-.82S325.31,141.17,326.3,140.5Z" style="fill:#263238"></path><path d="M329.41,143.61a19,19,0,0,1-3.38,4,3.06,3.06,0,0,0,2.41,1Z" style="fill:#ed847e"></path><path d="M331.69,151.91a5.86,5.86,0,0,0,4-1.52.18.18,0,1,0-.26-.24,5.7,5.7,0,0,1-5,1.29.17.17,0,0,0-.2.14.16.16,0,0,0,.14.2A6.12,6.12,0,0,0,331.69,151.91Z" style="fill:#263238"></path><path d="M339.4,140.69a.37.37,0,0,0,.18-.05.35.35,0,0,0,.12-.48,4.09,4.09,0,0,0-3.17-2,.35.35,0,0,0-.36.34.35.35,0,0,0,.34.36,3.4,3.4,0,0,1,2.59,1.71A.35.35,0,0,0,339.4,140.69Z" style="fill:#263238"></path><path d="M324.48,137.87a.38.38,0,0,0,.17,0,3.43,3.43,0,0,1,3.1-.2.35.35,0,0,0,.32-.62,4.08,4.08,0,0,0-3.77.21.35.35,0,0,0-.13.47A.33.33,0,0,0,324.48,137.87Z" style="fill:#263238"></path><path d="M364.54,179.16c.68.66,1.15,1.18,1.68,1.77s1,1.17,1.48,1.76c.95,1.19,1.86,2.41,2.71,3.66a60.28,60.28,0,0,1,4.48,7.91,51.25,51.25,0,0,1,3.11,8.57c.39,1.47.74,3,1,4.47a9.58,9.58,0,0,1-.69,6.32,8.35,8.35,0,0,1-2.23,2.66,11.27,11.27,0,0,1-2.61,1.5,18.9,18.9,0,0,1-5,1.18,42,42,0,0,1-9.13-.12,93.71,93.71,0,0,1-17.1-3.63l.92-3.63c2.72.45,5.52.87,8.28,1.16s5.54.55,8.27.61a43.32,43.32,0,0,0,7.91-.44,12.54,12.54,0,0,0,3.26-1,2.75,2.75,0,0,0,1.47-1.31,2,2,0,0,0,.12-.72,3.51,3.51,0,0,0,0-.54c0-.2-.07-.38-.16-.75-.28-1.29-.65-2.56-1.05-3.82a52.32,52.32,0,0,0-3-7.32,53.56,53.56,0,0,0-4.08-6.83c-.75-1.1-1.54-2.17-2.36-3.2-.41-.52-.84-1-1.26-1.51s-.9-1-1.23-1.36Z" style="fill:#ffc3bd"></path><path d="M345.45,212.13l-7-3.71-.32,9.27s5,.32,7.86-2Z" style="fill:#ffc3bd"></path><polygon points="333.17 262 338.95 199.19 326.6 189.73 288.9 186.26 282.35 257.32 333.17 262" style="fill:#1DC071"></polygon><polygon points="333.17 262 338.95 199.19 326.6 189.73 288.9 186.26 282.35 257.32 333.17 262" style="fill:#fff;opacity:0.8"></polygon><polygon points="338.95 199.19 326.6 189.73 329.84 201.05 338.95 199.19" style="fill:#1DC071"></polygon><circle cx="286.77" cy="252.9" r="15.4" style="fill:#1DC071"></circle><circle cx="286.77" cy="252.9" r="12.28" transform="translate(-95.03 232.22) rotate(-38.31)" style="fill:#fff"></circle><polygon points="294.36 251.82 288.94 251.19 289.57 245.77 285.69 245.31 285.06 250.73 279.64 250.09 279.18 253.98 284.6 254.62 283.96 260.03 287.85 260.49 288.48 255.07 293.9 255.71 294.36 251.82" style="fill:#1DC071"></polygon><path d="M329.73,212.21h0a4.2,4.2,0,0,1-4.57,3.8l-27.5-2.53a4.21,4.21,0,0,1-3.8-4.57h0a4.2,4.2,0,0,1,4.57-3.8l27.5,2.53A4.2,4.2,0,0,1,329.73,212.21Z" style="fill:#1DC071;opacity:0.4"></path><path d="M320.36,223.56h0a4.2,4.2,0,0,1-4.57,3.8l-19.22-1.77a4.2,4.2,0,0,1-3.8-4.57h0a4.2,4.2,0,0,1,4.57-3.8L316.56,219A4.21,4.21,0,0,1,320.36,223.56Z" style="fill:#1DC071;opacity:0.4"></path><polygon points="334.17 208.97 335.22 215.9 338.12 217.69 338.44 208.42 334.17 208.97" style="fill:#ffc3bd"></polygon><path d="M363,171c4.41.78,10.59,13.42,10.59,13.42l-11.11,10s-8.84-9.64-8.37-15.38C354.52,174.19,357.4,170,363,171Z" style="fill:#263238"></path><path d="M407.28,386.5a1.33,1.33,0,0,0,.34-.05c1.06-.36,1.75-2.31,2.07-3.44a.19.19,0,0,0-.06-.18.15.15,0,0,0-.19,0c-.32.16-3.14,1.67-3.23,2.78a.65.65,0,0,0,.3.62A1.22,1.22,0,0,0,407.28,386.5Zm2-3.18c-.49,1.56-1.12,2.59-1.72,2.79a.81.81,0,0,1-.79-.18.32.32,0,0,1-.16-.31C406.61,384.94,408.26,383.87,409.23,383.32Z" style="fill:#1DC071"></path><path d="M406.84,383.76a6.35,6.35,0,0,0,2.77-.65.18.18,0,0,0,.08-.15.16.16,0,0,0-.09-.15c-.09-.05-2.32-1.28-3.52-.85a1,1,0,0,0-.66.62.7.7,0,0,0,.16.86A2,2,0,0,0,406.84,383.76Zm2.29-.8c-.95.41-2.8.66-3.32.22-.09-.08-.18-.2-.06-.47a.68.68,0,0,1,.44-.42C407,382,408.5,382.65,409.13,383Z" style="fill:#1DC071"></path><path d="M348.73,408.75a13.91,13.91,0,0,0,2.87-.37.17.17,0,0,0,0-.32c-.43-.21-4.26-2-5.22-1.32a.56.56,0,0,0-.25.54,1.25,1.25,0,0,0,.52,1A3.42,3.42,0,0,0,348.73,408.75Zm2.27-.6c-1.13.21-3.23.49-4.1-.16a1,1,0,0,1-.38-.73.22.22,0,0,1,.1-.23C347.15,406.66,349.41,407.45,351,408.15Z" style="fill:#1DC071"></path><path d="M351.56,408.39a.21.21,0,0,0,.12,0,.17.17,0,0,0,.05-.18c0-.16-.9-3.93-3-3.69-.52.07-.67.32-.69.53-.13,1,2.28,2.89,3.43,3.37Zm-2.62-3.57c1.33,0,2.1,2.2,2.36,3.08-1.25-.66-3-2.23-2.89-2.84,0-.05,0-.19.39-.23Z" style="fill:#1DC071"></path><path d="M334.24,142.06l-1.59-.82S333.26,142.73,334.24,142.06Z" style="fill:#263238"></path></g></svg>